<svg viewBox="0 -64 826 834" role="img" aria-label="Band 6 Part 8: the gate" style="width:826px; max-width:100%; min-width:560px">
<defs><circle id="bh" r="3.6" fill="none" stroke="currentColor" stroke-width="1" opacity=".45"/><rect id="sk" x="-6.5" y="-6.5" width="13" height="13" rx="2" fill="none" stroke="currentColor" stroke-width="1" opacity=".5"/></defs>
<rect x="100" y="18" width="650" height="376" rx="7" fill="none" stroke="currentColor" stroke-width="1.3" opacity=".55"/>
<rect x="100" y="200" width="650" height="26" fill="currentColor" opacity=".07"/>
<line x1="108" y1="34" x2="742" y2="34" stroke="#C8452F" stroke-width="1.2" opacity=".45"/>
<text x="87" y="38" font-size="12" fill="#C8452F" text-anchor="middle" font-family="Archivo,Arial,sans-serif">+</text>
<use href="#bh" x="126" y="34"/>
<use href="#bh" x="152" y="34"/>
<use href="#bh" x="178" y="34"/>
<use href="#bh" x="204" y="34"/>
<use href="#bh" x="230" y="34"/>
<use href="#bh" x="256" y="34"/>
<use href="#bh" x="282" y="34"/>
<use href="#bh" x="308" y="34"/>
<use href="#bh" x="334" y="34"/>
<use href="#bh" x="360" y="34"/>
<use href="#bh" x="386" y="34"/>
<use href="#bh" x="412" y="34"/>
<use href="#bh" x="438" y="34"/>
<use href="#bh" x="464" y="34"/>
<use href="#bh" x="490" y="34"/>
<use href="#bh" x="516" y="34"/>
<use href="#bh" x="542" y="34"/>
<use href="#bh" x="568" y="34"/>
<use href="#bh" x="594" y="34"/>
<use href="#bh" x="620" y="34"/>
<use href="#bh" x="646" y="34"/>
<use href="#bh" x="672" y="34"/>
<use href="#bh" x="698" y="34"/>
<use href="#bh" x="724" y="34"/>
<line x1="108" y1="54" x2="742" y2="54" stroke="#3D6FA8" stroke-width="1.2" opacity=".45"/>
<text x="87" y="58" font-size="12" fill="#3D6FA8" text-anchor="middle" font-family="Archivo,Arial,sans-serif">−</text>
<use href="#bh" x="126" y="54"/>
<use href="#bh" x="152" y="54"/>
<use href="#bh" x="178" y="54"/>
<use href="#bh" x="204" y="54"/>
<use href="#bh" x="230" y="54"/>
<use href="#bh" x="256" y="54"/>
<use href="#bh" x="282" y="54"/>
<use href="#bh" x="308" y="54"/>
<use href="#bh" x="334" y="54"/>
<use href="#bh" x="360" y="54"/>
<use href="#bh" x="386" y="54"/>
<use href="#bh" x="412" y="54"/>
<use href="#bh" x="438" y="54"/>
<use href="#bh" x="464" y="54"/>
<use href="#bh" x="490" y="54"/>
<use href="#bh" x="516" y="54"/>
<use href="#bh" x="542" y="54"/>
<use href="#bh" x="568" y="54"/>
<use href="#bh" x="594" y="54"/>
<use href="#bh" x="620" y="54"/>
<use href="#bh" x="646" y="54"/>
<use href="#bh" x="672" y="54"/>
<use href="#bh" x="698" y="54"/>
<use href="#bh" x="724" y="54"/>
<line x1="108" y1="354" x2="742" y2="354" stroke="#3D6FA8" stroke-width="1.2" opacity=".45"/>
<text x="87" y="358" font-size="12" fill="#3D6FA8" text-anchor="middle" font-family="Archivo,Arial,sans-serif">−</text>
<use href="#bh" x="126" y="354"/>
<use href="#bh" x="152" y="354"/>
<use href="#bh" x="178" y="354"/>
<use href="#bh" x="204" y="354"/>
<use href="#bh" x="230" y="354"/>
<use href="#bh" x="256" y="354"/>
<use href="#bh" x="282" y="354"/>
<use href="#bh" x="308" y="354"/>
<use href="#bh" x="334" y="354"/>
<use href="#bh" x="360" y="354"/>
<use href="#bh" x="386" y="354"/>
<use href="#bh" x="412" y="354"/>
<use href="#bh" x="438" y="354"/>
<use href="#bh" x="464" y="354"/>
<use href="#bh" x="490" y="354"/>
<use href="#bh" x="516" y="354"/>
<use href="#bh" x="542" y="354"/>
<use href="#bh" x="568" y="354"/>
<use href="#bh" x="594" y="354"/>
<use href="#bh" x="620" y="354"/>
<use href="#bh" x="646" y="354"/>
<use href="#bh" x="672" y="354"/>
<use href="#bh" x="698" y="354"/>
<use href="#bh" x="724" y="354"/>
<line x1="108" y1="374" x2="742" y2="374" stroke="#C8452F" stroke-width="1.2" opacity=".45"/>
<text x="87" y="378" font-size="12" fill="#C8452F" text-anchor="middle" font-family="Archivo,Arial,sans-serif">+</text>
<use href="#bh" x="126" y="374"/>
<use href="#bh" x="152" y="374"/>
<use href="#bh" x="178" y="374"/>
<use href="#bh" x="204" y="374"/>
<use href="#bh" x="230" y="374"/>
<use href="#bh" x="256" y="374"/>
<use href="#bh" x="282" y="374"/>
<use href="#bh" x="308" y="374"/>
<use href="#bh" x="334" y="374"/>
<use href="#bh" x="360" y="374"/>
<use href="#bh" x="386" y="374"/>
<use href="#bh" x="412" y="374"/>
<use href="#bh" x="438" y="374"/>
<use href="#bh" x="464" y="374"/>
<use href="#bh" x="490" y="374"/>
<use href="#bh" x="516" y="374"/>
<use href="#bh" x="542" y="374"/>
<use href="#bh" x="568" y="374"/>
<use href="#bh" x="594" y="374"/>
<use href="#bh" x="620" y="374"/>
<use href="#bh" x="646" y="374"/>
<use href="#bh" x="672" y="374"/>
<use href="#bh" x="698" y="374"/>
<use href="#bh" x="724" y="374"/>
<text x="87" y="100" font-size="10" fill="currentColor" opacity=".5" text-anchor="middle" font-family="IBM Plex Mono,monospace">j</text>
<use href="#bh" x="126" y="96"/>
<use href="#bh" x="152" y="96"/>
<use href="#bh" x="178" y="96"/>
<use href="#bh" x="204" y="96"/>
<use href="#bh" x="230" y="96"/>
<use href="#bh" x="256" y="96"/>
<use href="#bh" x="282" y="96"/>
<use href="#bh" x="308" y="96"/>
<use href="#bh" x="334" y="96"/>
<use href="#bh" x="360" y="96"/>
<use href="#bh" x="386" y="96"/>
<use href="#bh" x="412" y="96"/>
<use href="#bh" x="438" y="96"/>
<use href="#bh" x="464" y="96"/>
<use href="#bh" x="490" y="96"/>
<use href="#bh" x="516" y="96"/>
<use href="#bh" x="542" y="96"/>
<use href="#bh" x="568" y="96"/>
<use href="#bh" x="594" y="96"/>
<use href="#bh" x="620" y="96"/>
<use href="#bh" x="646" y="96"/>
<use href="#bh" x="672" y="96"/>
<use href="#bh" x="698" y="96"/>
<use href="#bh" x="724" y="96"/>
<text x="87" y="122" font-size="10" fill="currentColor" opacity=".5" text-anchor="middle" font-family="IBM Plex Mono,monospace">i</text>
<use href="#bh" x="126" y="118"/>
<use href="#bh" x="152" y="118"/>
<use href="#bh" x="178" y="118"/>
<use href="#bh" x="204" y="118"/>
<use href="#bh" x="230" y="118"/>
<use href="#bh" x="256" y="118"/>
<use href="#bh" x="282" y="118"/>
<use href="#bh" x="308" y="118"/>
<use href="#bh" x="334" y="118"/>
<use href="#bh" x="360" y="118"/>
<use href="#bh" x="386" y="118"/>
<use href="#bh" x="412" y="118"/>
<use href="#bh" x="438" y="118"/>
<use href="#bh" x="464" y="118"/>
<use href="#bh" x="490" y="118"/>
<use href="#bh" x="516" y="118"/>
<use href="#bh" x="542" y="118"/>
<use href="#bh" x="568" y="118"/>
<use href="#bh" x="594" y="118"/>
<use href="#bh" x="620" y="118"/>
<use href="#bh" x="646" y="118"/>
<use href="#bh" x="672" y="118"/>
<use href="#bh" x="698" y="118"/>
<use href="#bh" x="724" y="118"/>
<text x="87" y="144" font-size="10" fill="currentColor" opacity=".5" text-anchor="middle" font-family="IBM Plex Mono,monospace">h</text>
<use href="#bh" x="126" y="140"/>
<use href="#bh" x="152" y="140"/>
<use href="#bh" x="178" y="140"/>
<use href="#bh" x="204" y="140"/>
<use href="#bh" x="230" y="140"/>
<use href="#bh" x="256" y="140"/>
<use href="#bh" x="282" y="140"/>
<use href="#bh" x="308" y="140"/>
<use href="#bh" x="334" y="140"/>
<use href="#bh" x="360" y="140"/>
<use href="#bh" x="386" y="140"/>
<use href="#bh" x="412" y="140"/>
<use href="#bh" x="438" y="140"/>
<use href="#bh" x="464" y="140"/>
<use href="#bh" x="490" y="140"/>
<use href="#bh" x="516" y="140"/>
<use href="#bh" x="542" y="140"/>
<use href="#bh" x="568" y="140"/>
<use href="#bh" x="594" y="140"/>
<use href="#bh" x="620" y="140"/>
<use href="#bh" x="646" y="140"/>
<use href="#bh" x="672" y="140"/>
<use href="#bh" x="698" y="140"/>
<use href="#bh" x="724" y="140"/>
<text x="87" y="166" font-size="10" fill="currentColor" opacity=".5" text-anchor="middle" font-family="IBM Plex Mono,monospace">g</text>
<use href="#bh" x="126" y="162"/>
<use href="#bh" x="152" y="162"/>
<use href="#bh" x="178" y="162"/>
<use href="#bh" x="204" y="162"/>
<use href="#bh" x="230" y="162"/>
<use href="#bh" x="256" y="162"/>
<use href="#bh" x="282" y="162"/>
<use href="#bh" x="308" y="162"/>
<use href="#bh" x="334" y="162"/>
<use href="#bh" x="360" y="162"/>
<use href="#bh" x="386" y="162"/>
<use href="#bh" x="412" y="162"/>
<use href="#bh" x="438" y="162"/>
<use href="#bh" x="464" y="162"/>
<use href="#bh" x="490" y="162"/>
<use href="#bh" x="516" y="162"/>
<use href="#bh" x="542" y="162"/>
<use href="#bh" x="568" y="162"/>
<use href="#bh" x="594" y="162"/>
<use href="#bh" x="620" y="162"/>
<use href="#bh" x="646" y="162"/>
<use href="#bh" x="672" y="162"/>
<use href="#bh" x="698" y="162"/>
<use href="#bh" x="724" y="162"/>
<text x="87" y="188" font-size="10" fill="currentColor" opacity=".5" text-anchor="middle" font-family="IBM Plex Mono,monospace">f</text>
<use href="#bh" x="126" y="184"/>
<use href="#bh" x="152" y="184"/>
<use href="#bh" x="178" y="184"/>
<use href="#bh" x="204" y="184"/>
<use href="#bh" x="230" y="184"/>
<use href="#bh" x="256" y="184"/>
<use href="#bh" x="282" y="184"/>
<use href="#bh" x="308" y="184"/>
<use href="#bh" x="334" y="184"/>
<use href="#bh" x="360" y="184"/>
<use href="#bh" x="386" y="184"/>
<use href="#bh" x="412" y="184"/>
<use href="#bh" x="438" y="184"/>
<use href="#bh" x="464" y="184"/>
<use href="#bh" x="490" y="184"/>
<use href="#bh" x="516" y="184"/>
<use href="#bh" x="542" y="184"/>
<use href="#bh" x="568" y="184"/>
<use href="#bh" x="594" y="184"/>
<use href="#bh" x="620" y="184"/>
<use href="#bh" x="646" y="184"/>
<use href="#bh" x="672" y="184"/>
<use href="#bh" x="698" y="184"/>
<use href="#bh" x="724" y="184"/>
<text x="87" y="238" font-size="10" fill="currentColor" opacity=".5" text-anchor="middle" font-family="IBM Plex Mono,monospace">e</text>
<use href="#bh" x="126" y="234"/>
<use href="#bh" x="152" y="234"/>
<use href="#bh" x="178" y="234"/>
<use href="#bh" x="204" y="234"/>
<use href="#bh" x="230" y="234"/>
<use href="#bh" x="256" y="234"/>
<use href="#bh" x="282" y="234"/>
<use href="#bh" x="308" y="234"/>
<use href="#bh" x="334" y="234"/>
<use href="#bh" x="360" y="234"/>
<use href="#bh" x="386" y="234"/>
<use href="#bh" x="412" y="234"/>
<use href="#bh" x="438" y="234"/>
<use href="#bh" x="464" y="234"/>
<use href="#bh" x="490" y="234"/>
<use href="#bh" x="516" y="234"/>
<use href="#bh" x="542" y="234"/>
<use href="#bh" x="568" y="234"/>
<use href="#bh" x="594" y="234"/>
<use href="#bh" x="620" y="234"/>
<use href="#bh" x="646" y="234"/>
<use href="#bh" x="672" y="234"/>
<use href="#bh" x="698" y="234"/>
<use href="#bh" x="724" y="234"/>
<text x="87" y="260" font-size="10" fill="currentColor" opacity=".5" text-anchor="middle" font-family="IBM Plex Mono,monospace">d</text>
<use href="#bh" x="126" y="256"/>
<use href="#bh" x="152" y="256"/>
<use href="#bh" x="178" y="256"/>
<use href="#bh" x="204" y="256"/>
<use href="#bh" x="230" y="256"/>
<use href="#bh" x="256" y="256"/>
<use href="#bh" x="282" y="256"/>
<use href="#bh" x="308" y="256"/>
<use href="#bh" x="334" y="256"/>
<use href="#bh" x="360" y="256"/>
<use href="#bh" x="386" y="256"/>
<use href="#bh" x="412" y="256"/>
<use href="#bh" x="438" y="256"/>
<use href="#bh" x="464" y="256"/>
<use href="#bh" x="490" y="256"/>
<use href="#bh" x="516" y="256"/>
<use href="#bh" x="542" y="256"/>
<use href="#bh" x="568" y="256"/>
<use href="#bh" x="594" y="256"/>
<use href="#bh" x="620" y="256"/>
<use href="#bh" x="646" y="256"/>
<use href="#bh" x="672" y="256"/>
<use href="#bh" x="698" y="256"/>
<use href="#bh" x="724" y="256"/>
<text x="87" y="282" font-size="10" fill="currentColor" opacity=".5" text-anchor="middle" font-family="IBM Plex Mono,monospace">c</text>
<use href="#bh" x="126" y="278"/>
<use href="#bh" x="152" y="278"/>
<use href="#bh" x="178" y="278"/>
<use href="#bh" x="204" y="278"/>
<use href="#bh" x="230" y="278"/>
<use href="#bh" x="256" y="278"/>
<use href="#bh" x="282" y="278"/>
<use href="#bh" x="308" y="278"/>
<use href="#bh" x="334" y="278"/>
<use href="#bh" x="360" y="278"/>
<use href="#bh" x="386" y="278"/>
<use href="#bh" x="412" y="278"/>
<use href="#bh" x="438" y="278"/>
<use href="#bh" x="464" y="278"/>
<use href="#bh" x="490" y="278"/>
<use href="#bh" x="516" y="278"/>
<use href="#bh" x="542" y="278"/>
<use href="#bh" x="568" y="278"/>
<use href="#bh" x="594" y="278"/>
<use href="#bh" x="620" y="278"/>
<use href="#bh" x="646" y="278"/>
<use href="#bh" x="672" y="278"/>
<use href="#bh" x="698" y="278"/>
<use href="#bh" x="724" y="278"/>
<text x="87" y="304" font-size="10" fill="currentColor" opacity=".5" text-anchor="middle" font-family="IBM Plex Mono,monospace">b</text>
<use href="#bh" x="126" y="300"/>
<use href="#bh" x="152" y="300"/>
<use href="#bh" x="178" y="300"/>
<use href="#bh" x="204" y="300"/>
<use href="#bh" x="230" y="300"/>
<use href="#bh" x="256" y="300"/>
<use href="#bh" x="282" y="300"/>
<use href="#bh" x="308" y="300"/>
<use href="#bh" x="334" y="300"/>
<use href="#bh" x="360" y="300"/>
<use href="#bh" x="386" y="300"/>
<use href="#bh" x="412" y="300"/>
<use href="#bh" x="438" y="300"/>
<use href="#bh" x="464" y="300"/>
<use href="#bh" x="490" y="300"/>
<use href="#bh" x="516" y="300"/>
<use href="#bh" x="542" y="300"/>
<use href="#bh" x="568" y="300"/>
<use href="#bh" x="594" y="300"/>
<use href="#bh" x="620" y="300"/>
<use href="#bh" x="646" y="300"/>
<use href="#bh" x="672" y="300"/>
<use href="#bh" x="698" y="300"/>
<use href="#bh" x="724" y="300"/>
<text x="87" y="326" font-size="10" fill="currentColor" opacity=".5" text-anchor="middle" font-family="IBM Plex Mono,monospace">a</text>
<use href="#bh" x="126" y="322"/>
<use href="#bh" x="152" y="322"/>
<use href="#bh" x="178" y="322"/>
<use href="#bh" x="204" y="322"/>
<use href="#bh" x="230" y="322"/>
<use href="#bh" x="256" y="322"/>
<use href="#bh" x="282" y="322"/>
<use href="#bh" x="308" y="322"/>
<use href="#bh" x="334" y="322"/>
<use href="#bh" x="360" y="322"/>
<use href="#bh" x="386" y="322"/>
<use href="#bh" x="412" y="322"/>
<use href="#bh" x="438" y="322"/>
<use href="#bh" x="464" y="322"/>
<use href="#bh" x="490" y="322"/>
<use href="#bh" x="516" y="322"/>
<use href="#bh" x="542" y="322"/>
<use href="#bh" x="568" y="322"/>
<use href="#bh" x="594" y="322"/>
<use href="#bh" x="620" y="322"/>
<use href="#bh" x="646" y="322"/>
<use href="#bh" x="672" y="322"/>
<use href="#bh" x="698" y="322"/>
<use href="#bh" x="724" y="322"/>
<text x="126" y="12" font-size="10" fill="currentColor" opacity=".5" text-anchor="middle" font-family="IBM Plex Mono,monospace">1</text>
<text x="230" y="12" font-size="10" fill="currentColor" opacity=".5" text-anchor="middle" font-family="IBM Plex Mono,monospace">5</text>
<text x="360" y="12" font-size="10" fill="currentColor" opacity=".5" text-anchor="middle" font-family="IBM Plex Mono,monospace">10</text>
<text x="490" y="12" font-size="10" fill="currentColor" opacity=".5" text-anchor="middle" font-family="IBM Plex Mono,monospace">15</text>
<text x="620" y="12" font-size="10" fill="currentColor" opacity=".5" text-anchor="middle" font-family="IBM Plex Mono,monospace">20</text>
<rect x="100" y="606" width="463.2" height="118" rx="8" fill="currentColor" opacity=".05"/>
<rect x="100" y="606" width="463.2" height="118" rx="8" fill="none" stroke="currentColor" stroke-width="1.3" opacity=".6"/>
<rect x="88" y="622" width="34" height="22" rx="3" fill="none" stroke="currentColor" stroke-width="1" opacity=".5"/>
<text x="105" y="636" font-size="8.5" fill="currentColor" opacity=".55" text-anchor="middle" font-family="IBM Plex Mono,monospace">USB</text>
<text x="331.6" y="669" font-size="11" fill="currentColor" opacity=".55" text-anchor="middle" letter-spacing="1.6" font-family="Archivo,Arial,sans-serif">ARDUINO UNO</text>
<use href="#sk" x="136" y="621"/>
<use href="#sk" x="158" y="621"/>
<use href="#sk" x="180" y="621"/>
<use href="#sk" x="202" y="621"/>
<use href="#sk" x="224" y="621"/>
<use href="#sk" x="246" y="621"/>
<use href="#sk" x="268" y="621"/>
<use href="#sk" x="290" y="621"/>
<use href="#sk" x="312" y="621"/>
<rect x="305.5" y="614.5" width="13" height="13" rx="2" fill="#2E7D46" opacity=".18"/>
<rect x="305.5" y="614.5" width="13" height="13" rx="2" fill="none" stroke="#2E7D46" stroke-width="1.6"/>
<use href="#sk" x="334" y="621"/>
<use href="#sk" x="378" y="621"/>
<rect x="371.5" y="614.5" width="13" height="13" rx="2" fill="#2E7D46" opacity=".18"/>
<rect x="371.5" y="614.5" width="13" height="13" rx="2" fill="none" stroke="#2E7D46" stroke-width="1.6"/>
<use href="#sk" x="400" y="621"/>
<use href="#sk" x="422" y="621"/>
<use href="#sk" x="444" y="621"/>
<use href="#sk" x="466" y="621"/>
<use href="#sk" x="488" y="621"/>
<rect x="481.5" y="614.5" width="13" height="13" rx="2" fill="#2E7D46" opacity=".18"/>
<rect x="481.5" y="614.5" width="13" height="13" rx="2" fill="none" stroke="#2E7D46" stroke-width="1.6"/>
<use href="#sk" x="510" y="621"/>
<use href="#sk" x="532" y="621"/>
<use href="#sk" x="136" y="709"/>
<use href="#sk" x="158" y="709"/>
<use href="#sk" x="180" y="709"/>
<use href="#sk" x="202" y="709"/>
<rect x="195.5" y="702.5" width="13" height="13" rx="2" fill="#2E7D46" opacity=".18"/>
<rect x="195.5" y="702.5" width="13" height="13" rx="2" fill="none" stroke="#2E7D46" stroke-width="1.6"/>
<use href="#sk" x="224" y="709"/>
<rect x="217.5" y="702.5" width="13" height="13" rx="2" fill="#2E7D46" opacity=".18"/>
<rect x="217.5" y="702.5" width="13" height="13" rx="2" fill="none" stroke="#2E7D46" stroke-width="1.6"/>
<use href="#sk" x="246" y="709"/>
<use href="#sk" x="268" y="709"/>
<use href="#sk" x="312" y="709"/>
<rect x="305.5" y="702.5" width="13" height="13" rx="2" fill="#2E7D46" opacity=".18"/>
<rect x="305.5" y="702.5" width="13" height="13" rx="2" fill="none" stroke="#2E7D46" stroke-width="1.6"/>
<use href="#sk" x="334" y="709"/>
<use href="#sk" x="356" y="709"/>
<use href="#sk" x="378" y="709"/>
<use href="#sk" x="400" y="709"/>
<use href="#sk" x="422" y="709"/>
<line x1="230" y1="184" x2="230" y2="153" stroke="currentColor" stroke-width="1.6"/>
<line x1="256" y1="184" x2="256" y2="153" stroke="currentColor" stroke-width="1.6"/>
<line x1="282" y1="184" x2="282" y2="153" stroke="currentColor" stroke-width="1.6"/>
<rect x="222" y="131" width="68" height="22" rx="3" fill="currentColor" opacity=".13" stroke="currentColor" stroke-width="1.1"/>
<circle cx="256" cy="142" r="8" fill="none" stroke="currentColor" stroke-width="1.3"/>
<line x1="256" y1="142" x2="261" y2="136" stroke="currentColor" stroke-width="1.5"/>
<text x="297" y="146" font-size="9" text-anchor="start" font-weight="400" font-family="IBM Plex Mono,monospace" fill="none" stroke="var(--surface,#F8F9F7)" stroke-width="3.2" stroke-linejoin="round">knob</text>
<text x="297" y="146" font-size="9" text-anchor="start" font-weight="400" font-family="IBM Plex Mono,monospace" fill="currentColor" opacity=".8">knob</text>
<line x1="230" y1="96" x2="230" y2="54" stroke="#3D6FA8" stroke-width="1.9" opacity=".9"/>
<circle cx="230" cy="54" r="2.6" fill="#3D6FA8"/>
<circle cx="230" cy="96" r="2.6" fill="#3D6FA8"/>
<path d="M 256 96 L 256 -19 Q 256 -28 247 -28 L 55 -28 Q 46 -28 46 -19 L 46 747 Q 46 756 55 756 L 303 756 Q 312 756 312 747 L 312 709" fill="none" stroke="#2E7D46" stroke-width="1.9" opacity=".9"/>
<circle cx="312" cy="709" r="2.6" fill="#2E7D46"/>
<circle cx="256" cy="96" r="2.6" fill="#2E7D46"/>
<path d="M 282 96 L 282 -27 Q 282 -36 273 -36 L 47 -36 Q 38 -36 38 -27 L 38 755 Q 38 764 47 764 L 193 764 Q 202 764 202 755 L 202 709" fill="none" stroke="#2E7D46" stroke-width="1.9" opacity=".9"/>
<circle cx="202" cy="709" r="2.6" fill="#2E7D46"/>
<circle cx="282" cy="96" r="2.6" fill="#2E7D46"/>
<line x1="594" y1="234" x2="594" y2="227" stroke="currentColor" stroke-width="1.6"/>
<line x1="646" y1="234" x2="646" y2="227" stroke="currentColor" stroke-width="1.6"/>
<line x1="594" y1="184" x2="594" y2="199" stroke="currentColor" stroke-width="1.6"/>
<line x1="646" y1="184" x2="646" y2="199" stroke="currentColor" stroke-width="1.6"/>
<rect x="590" y="198" width="60" height="30" rx="3" fill="currentColor" opacity=".13" stroke="currentColor" stroke-width="1.1"/>
<circle cx="620" cy="213" r="6.5" fill="currentColor" opacity=".25" stroke="currentColor" stroke-width="1"/>
<text x="656" y="217" font-size="9" text-anchor="start" font-weight="400" font-family="IBM Plex Mono,monospace" fill="none" stroke="var(--surface,#F8F9F7)" stroke-width="3.2" stroke-linejoin="round">button</text>
<text x="656" y="217" font-size="9" text-anchor="start" font-weight="400" font-family="IBM Plex Mono,monospace" fill="currentColor" opacity=".8">button</text>
<path d="M 594 96 L 594 -35 Q 594 -44 603 -44 L 811 -44 Q 820 -44 820 -35 L 820 547 Q 820 556 811 556 L 497 556 Q 488 556 488 565 L 488 621" fill="none" stroke="#2E7D46" stroke-width="1.9" opacity=".9"/>
<circle cx="488" cy="621" r="2.6" fill="#2E7D46"/>
<circle cx="594" cy="96" r="2.6" fill="#2E7D46"/>
<line x1="646" y1="322" x2="646" y2="54" stroke="#3D6FA8" stroke-width="1.9" opacity=".9"/>
<circle cx="646" cy="54" r="2.6" fill="#3D6FA8"/>
<circle cx="646" cy="322" r="2.6" fill="#3D6FA8"/>
<line x1="178" y1="300" x2="186" y2="272" stroke="currentColor" stroke-width="2.2"/>
<line x1="204" y1="300" x2="196" y2="272" stroke="currentColor" stroke-width="1.3"/>
<path d="M 181 264 a 10 10 0 0 1 20 0 v 8 h -20 z" fill="#C8452F" opacity=".85" stroke="currentColor" stroke-width="1"/>
<text x="167" y="303.5" font-size="11" text-anchor="middle" font-weight="400" font-family="IBM Plex Mono,monospace" fill="none" stroke="var(--surface,#F8F9F7)" stroke-width="3.2" stroke-linejoin="round">+</text>
<text x="167" y="303.5" font-size="11" text-anchor="middle" font-weight="400" font-family="IBM Plex Mono,monospace" fill="currentColor" opacity=".9">+</text>
<polyline points="178,322 178,290 126,290 126,322" fill="none" stroke="currentColor" stroke-width="1.5"/>
<rect x="139" y="285" width="26" height="10" rx="3" fill="#8E4C21" opacity=".2" stroke="currentColor" stroke-width="1"/>
<line x1="145" y1="285" x2="145" y2="295" stroke="#8E4C21" stroke-width="1.6" opacity=".85"/>
<line x1="149" y1="285" x2="149" y2="295" stroke="#8E4C21" stroke-width="1.6" opacity=".85"/>
<line x1="156" y1="285" x2="156" y2="295" stroke="#8E4C21" stroke-width="1.6" opacity=".85"/>
<text x="152" y="281" font-size="9.5" text-anchor="middle" font-weight="400" font-family="IBM Plex Mono,monospace" fill="none" stroke="var(--surface,#F8F9F7)" stroke-width="3.2" stroke-linejoin="round">220</text>
<text x="152" y="281" font-size="9.5" text-anchor="middle" font-weight="400" font-family="IBM Plex Mono,monospace" fill="#8E4C21" opacity="1">220</text>
<path d="M 126 300 L 126 401 Q 126 410 117 410 L 63 410 Q 54 410 54 419 L 54 571 Q 54 580 63 580 L 369 580 Q 378 580 378 589 L 378 621" fill="none" stroke="#2E7D46" stroke-width="1.9" opacity=".9"/>
<circle cx="378" cy="621" r="2.6" fill="#2E7D46"/>
<circle cx="126" cy="300" r="2.6" fill="#2E7D46"/>
<line x1="204" y1="322" x2="204" y2="54" stroke="#3D6FA8" stroke-width="1.9" opacity=".9"/>
<circle cx="204" cy="54" r="2.6" fill="#3D6FA8"/>
<circle cx="204" cy="322" r="2.6" fill="#3D6FA8"/>
<rect x="554" y="505" width="170" height="30" rx="4" fill="currentColor" opacity=".12" stroke="currentColor" stroke-width="1.2"/>
<text x="639" y="524" font-size="10" text-anchor="middle" font-weight="400" font-family="Archivo,Arial,sans-serif" fill="none" stroke="var(--surface,#F8F9F7)" stroke-width="3.2" stroke-linejoin="round">6 V battery pack</text>
<text x="639" y="524" font-size="10" text-anchor="middle" font-weight="400" font-family="Archivo,Arial,sans-serif" fill="currentColor" opacity=".92">6 V battery pack</text>
<path d="M 594 505 L 594 495 Q 594 486 603 486 L 741 486 Q 750 486 750 477 L 750 43 Q 750 34 741 34 L 720 34" fill="none" stroke="#C8452F" stroke-width="2.1" opacity=".95"/>
<circle cx="720" cy="34" r="2.8" fill="#C8452F"/>
<path d="M 684 505 L 684 495 Q 684 486 693 486 L 759 486 Q 768 486 768 477 L 768 63 Q 768 54 759 54 L 694 54" fill="none" stroke="#3D6FA8" stroke-width="2.1" opacity=".95"/>
<circle cx="694" cy="54" r="2.8" fill="#3D6FA8"/>
<path d="M 224 709 L 224 747 Q 224 756 215 756 L 25 756 Q 16 756 16 747 L 16 63 Q 16 54 25 54 L 152 54" fill="none" stroke="#3D6FA8" stroke-width="2.1" opacity=".95"/>
<circle cx="224" cy="709" r="2.8" fill="#3D6FA8"/>
<circle cx="152" cy="54" r="2.8" fill="#3D6FA8"/>
<rect x="106" y="443" width="168" height="34" rx="5" fill="currentColor" opacity=".12" stroke="currentColor" stroke-width="1.2"/>
<text x="190" y="438" font-size="10" text-anchor="middle" font-weight="400" font-family="Archivo,Arial,sans-serif" fill="none" stroke="var(--surface,#F8F9F7)" stroke-width="3.2" stroke-linejoin="round">servo</text>
<text x="190" y="438" font-size="10" text-anchor="middle" font-weight="400" font-family="Archivo,Arial,sans-serif" fill="currentColor" opacity=".92">servo</text>
<circle cx="312" cy="621" r="2.6" fill="#2E7D46"/>
<path d="M 130 477 L 130 557 Q 130 564 137 564 L 305 564 Q 312 564 312 571 L 312 621" fill="none" stroke="#2E7D46" stroke-width="1.9" opacity=".92"/>
<text x="130" y="465" font-size="8.5" text-anchor="middle" font-weight="700" font-family="IBM Plex Mono,monospace" fill="none" stroke="var(--surface,#F8F9F7)" stroke-width="3.2" stroke-linejoin="round">orange</text>
<text x="130" y="465" font-size="8.5" text-anchor="middle" font-weight="700" font-family="IBM Plex Mono,monospace" fill="#2E7D46" opacity=".95">orange</text>
<path d="M 197 443 L 197 433 Q 197 426 190 426 L 35 426 Q 28 426 28 419 L 28 41 Q 28 34 35 34 L 178 34" fill="none" stroke="#C8452F" stroke-width="1.9" opacity=".92"/>
<text x="197" y="465" font-size="8.5" text-anchor="middle" font-weight="700" font-family="IBM Plex Mono,monospace" fill="none" stroke="var(--surface,#F8F9F7)" stroke-width="3.2" stroke-linejoin="round">red</text>
<text x="197" y="465" font-size="8.5" text-anchor="middle" font-weight="700" font-family="IBM Plex Mono,monospace" fill="#C8452F" opacity=".95">red</text>
<path d="M 264 443 L 264 433 Q 264 426 257 426 L 59 426 Q 52 426 52 419 L 52 61 Q 52 54 59 54 L 178 54" fill="none" stroke="#3D6FA8" stroke-width="1.9" opacity=".92"/>
<text x="264" y="465" font-size="8.5" text-anchor="middle" font-weight="700" font-family="IBM Plex Mono,monospace" fill="none" stroke="var(--surface,#F8F9F7)" stroke-width="3.2" stroke-linejoin="round">brown</text>
<text x="264" y="465" font-size="8.5" text-anchor="middle" font-weight="700" font-family="IBM Plex Mono,monospace" fill="#3D6FA8" opacity=".95">brown</text>
<circle cx="126" cy="322" r="4.6" fill="none" stroke="currentColor" stroke-width="1.4" opacity=".85"/>
<text x="126" y="337" font-size="9" text-anchor="middle" font-weight="400" font-family="IBM Plex Mono,monospace" fill="none" stroke="var(--surface,#F8F9F7)" stroke-width="3.2" stroke-linejoin="round">a1</text>
<text x="126" y="337" font-size="9" text-anchor="middle" font-weight="400" font-family="IBM Plex Mono,monospace" fill="currentColor" opacity="1">a1</text>
<circle cx="646" cy="322" r="4.6" fill="none" stroke="currentColor" stroke-width="1.4" opacity=".85"/>
<text x="646" y="337" font-size="9" text-anchor="middle" font-weight="400" font-family="IBM Plex Mono,monospace" fill="none" stroke="var(--surface,#F8F9F7)" stroke-width="3.2" stroke-linejoin="round">a21</text>
<text x="646" y="337" font-size="9" text-anchor="middle" font-weight="400" font-family="IBM Plex Mono,monospace" fill="currentColor" opacity="1">a21</text>
<circle cx="178" cy="322" r="4.6" fill="none" stroke="currentColor" stroke-width="1.4" opacity=".85"/>
<text x="178" y="337" font-size="9" text-anchor="middle" font-weight="400" font-family="IBM Plex Mono,monospace" fill="none" stroke="var(--surface,#F8F9F7)" stroke-width="3.2" stroke-linejoin="round">a3</text>
<text x="178" y="337" font-size="9" text-anchor="middle" font-weight="400" font-family="IBM Plex Mono,monospace" fill="currentColor" opacity="1">a3</text>
<circle cx="204" cy="322" r="4.6" fill="none" stroke="currentColor" stroke-width="1.4" opacity=".85"/>
<text x="204" y="337" font-size="9" text-anchor="middle" font-weight="400" font-family="IBM Plex Mono,monospace" fill="none" stroke="var(--surface,#F8F9F7)" stroke-width="3.2" stroke-linejoin="round">a4</text>
<text x="204" y="337" font-size="9" text-anchor="middle" font-weight="400" font-family="IBM Plex Mono,monospace" fill="currentColor" opacity="1">a4</text>
<circle cx="126" cy="300" r="4.6" fill="none" stroke="currentColor" stroke-width="1.4" opacity=".85"/>
<text x="126" y="315" font-size="9" text-anchor="middle" font-weight="400" font-family="IBM Plex Mono,monospace" fill="none" stroke="var(--surface,#F8F9F7)" stroke-width="3.2" stroke-linejoin="round">b1</text>
<text x="126" y="315" font-size="9" text-anchor="middle" font-weight="400" font-family="IBM Plex Mono,monospace" fill="currentColor" opacity="1">b1</text>
<circle cx="178" cy="300" r="4.6" fill="none" stroke="currentColor" stroke-width="1.4" opacity=".85"/>
<text x="178" y="315" font-size="9" text-anchor="middle" font-weight="400" font-family="IBM Plex Mono,monospace" fill="none" stroke="var(--surface,#F8F9F7)" stroke-width="3.2" stroke-linejoin="round">b3</text>
<text x="178" y="315" font-size="9" text-anchor="middle" font-weight="400" font-family="IBM Plex Mono,monospace" fill="currentColor" opacity="1">b3</text>
<circle cx="204" cy="300" r="4.6" fill="none" stroke="currentColor" stroke-width="1.4" opacity=".85"/>
<text x="204" y="315" font-size="9" text-anchor="middle" font-weight="400" font-family="IBM Plex Mono,monospace" fill="none" stroke="var(--surface,#F8F9F7)" stroke-width="3.2" stroke-linejoin="round">b4</text>
<text x="204" y="315" font-size="9" text-anchor="middle" font-weight="400" font-family="IBM Plex Mono,monospace" fill="currentColor" opacity="1">b4</text>
<circle cx="594" cy="234" r="4.6" fill="none" stroke="currentColor" stroke-width="1.4" opacity=".85"/>
<text x="594" y="249" font-size="9" text-anchor="middle" font-weight="400" font-family="IBM Plex Mono,monospace" fill="none" stroke="var(--surface,#F8F9F7)" stroke-width="3.2" stroke-linejoin="round">e19</text>
<text x="594" y="249" font-size="9" text-anchor="middle" font-weight="400" font-family="IBM Plex Mono,monospace" fill="currentColor" opacity="1">e19</text>
<circle cx="646" cy="234" r="4.6" fill="none" stroke="currentColor" stroke-width="1.4" opacity=".85"/>
<text x="646" y="249" font-size="9" text-anchor="middle" font-weight="400" font-family="IBM Plex Mono,monospace" fill="none" stroke="var(--surface,#F8F9F7)" stroke-width="3.2" stroke-linejoin="round">e21</text>
<text x="646" y="249" font-size="9" text-anchor="middle" font-weight="400" font-family="IBM Plex Mono,monospace" fill="currentColor" opacity="1">e21</text>
<circle cx="594" cy="184" r="4.6" fill="none" stroke="currentColor" stroke-width="1.4" opacity=".85"/>
<text x="594" y="199" font-size="9" text-anchor="middle" font-weight="400" font-family="IBM Plex Mono,monospace" fill="none" stroke="var(--surface,#F8F9F7)" stroke-width="3.2" stroke-linejoin="round">f19</text>
<text x="594" y="199" font-size="9" text-anchor="middle" font-weight="400" font-family="IBM Plex Mono,monospace" fill="currentColor" opacity="1">f19</text>
<circle cx="646" cy="184" r="4.6" fill="none" stroke="currentColor" stroke-width="1.4" opacity=".85"/>
<text x="646" y="199" font-size="9" text-anchor="middle" font-weight="400" font-family="IBM Plex Mono,monospace" fill="none" stroke="var(--surface,#F8F9F7)" stroke-width="3.2" stroke-linejoin="round">f21</text>
<text x="646" y="199" font-size="9" text-anchor="middle" font-weight="400" font-family="IBM Plex Mono,monospace" fill="currentColor" opacity="1">f21</text>
<circle cx="230" cy="184" r="4.6" fill="none" stroke="currentColor" stroke-width="1.4" opacity=".85"/>
<text x="230" y="199" font-size="9" text-anchor="middle" font-weight="400" font-family="IBM Plex Mono,monospace" fill="none" stroke="var(--surface,#F8F9F7)" stroke-width="3.2" stroke-linejoin="round">f5</text>
<text x="230" y="199" font-size="9" text-anchor="middle" font-weight="400" font-family="IBM Plex Mono,monospace" fill="currentColor" opacity="1">f5</text>
<circle cx="256" cy="184" r="4.6" fill="none" stroke="currentColor" stroke-width="1.4" opacity=".85"/>
<text x="256" y="199" font-size="9" text-anchor="middle" font-weight="400" font-family="IBM Plex Mono,monospace" fill="none" stroke="var(--surface,#F8F9F7)" stroke-width="3.2" stroke-linejoin="round">f6</text>
<text x="256" y="199" font-size="9" text-anchor="middle" font-weight="400" font-family="IBM Plex Mono,monospace" fill="currentColor" opacity="1">f6</text>
<circle cx="282" cy="184" r="4.6" fill="none" stroke="currentColor" stroke-width="1.4" opacity=".85"/>
<text x="282" y="199" font-size="9" text-anchor="middle" font-weight="400" font-family="IBM Plex Mono,monospace" fill="none" stroke="var(--surface,#F8F9F7)" stroke-width="3.2" stroke-linejoin="round">f7</text>
<text x="282" y="199" font-size="9" text-anchor="middle" font-weight="400" font-family="IBM Plex Mono,monospace" fill="currentColor" opacity="1">f7</text>
<circle cx="594" cy="96" r="4.6" fill="none" stroke="currentColor" stroke-width="1.4" opacity=".85"/>
<text x="594" y="111" font-size="9" text-anchor="middle" font-weight="400" font-family="IBM Plex Mono,monospace" fill="none" stroke="var(--surface,#F8F9F7)" stroke-width="3.2" stroke-linejoin="round">j19</text>
<text x="594" y="111" font-size="9" text-anchor="middle" font-weight="400" font-family="IBM Plex Mono,monospace" fill="currentColor" opacity="1">j19</text>
<circle cx="230" cy="96" r="4.6" fill="none" stroke="currentColor" stroke-width="1.4" opacity=".85"/>
<text x="230" y="111" font-size="9" text-anchor="middle" font-weight="400" font-family="IBM Plex Mono,monospace" fill="none" stroke="var(--surface,#F8F9F7)" stroke-width="3.2" stroke-linejoin="round">j5</text>
<text x="230" y="111" font-size="9" text-anchor="middle" font-weight="400" font-family="IBM Plex Mono,monospace" fill="currentColor" opacity="1">j5</text>
<circle cx="256" cy="96" r="4.6" fill="none" stroke="currentColor" stroke-width="1.4" opacity=".85"/>
<text x="256" y="111" font-size="9" text-anchor="middle" font-weight="400" font-family="IBM Plex Mono,monospace" fill="none" stroke="var(--surface,#F8F9F7)" stroke-width="3.2" stroke-linejoin="round">j6</text>
<text x="256" y="111" font-size="9" text-anchor="middle" font-weight="400" font-family="IBM Plex Mono,monospace" fill="currentColor" opacity="1">j6</text>
<circle cx="282" cy="96" r="4.6" fill="none" stroke="currentColor" stroke-width="1.4" opacity=".85"/>
<text x="282" y="111" font-size="9" text-anchor="middle" font-weight="400" font-family="IBM Plex Mono,monospace" fill="none" stroke="var(--surface,#F8F9F7)" stroke-width="3.2" stroke-linejoin="round">j7</text>
<text x="282" y="111" font-size="9" text-anchor="middle" font-weight="400" font-family="IBM Plex Mono,monospace" fill="currentColor" opacity="1">j7</text>
<text x="136" y="637" font-size="8.5" text-anchor="middle" font-weight="400" font-family="IBM Plex Mono,monospace" fill="none" stroke="var(--surface,#F8F9F7)" stroke-width="3.2" stroke-linejoin="round">SCL</text>
<text x="136" y="637" font-size="8.5" text-anchor="middle" font-weight="400" font-family="IBM Plex Mono,monospace" fill="currentColor" opacity=".4">SCL</text>
<text x="158" y="637" font-size="8.5" text-anchor="middle" font-weight="400" font-family="IBM Plex Mono,monospace" fill="none" stroke="var(--surface,#F8F9F7)" stroke-width="3.2" stroke-linejoin="round">SDA</text>
<text x="158" y="637" font-size="8.5" text-anchor="middle" font-weight="400" font-family="IBM Plex Mono,monospace" fill="currentColor" opacity=".4">SDA</text>
<text x="180" y="637" font-size="8.5" text-anchor="middle" font-weight="400" font-family="IBM Plex Mono,monospace" fill="none" stroke="var(--surface,#F8F9F7)" stroke-width="3.2" stroke-linejoin="round">AREF</text>
<text x="180" y="637" font-size="8.5" text-anchor="middle" font-weight="400" font-family="IBM Plex Mono,monospace" fill="currentColor" opacity=".4">AREF</text>
<text x="202" y="637" font-size="8.5" text-anchor="middle" font-weight="400" font-family="IBM Plex Mono,monospace" fill="none" stroke="var(--surface,#F8F9F7)" stroke-width="3.2" stroke-linejoin="round">GND</text>
<text x="202" y="637" font-size="8.5" text-anchor="middle" font-weight="400" font-family="IBM Plex Mono,monospace" fill="currentColor" opacity=".4">GND</text>
<text x="224" y="637" font-size="8.5" text-anchor="middle" font-weight="400" font-family="IBM Plex Mono,monospace" fill="none" stroke="var(--surface,#F8F9F7)" stroke-width="3.2" stroke-linejoin="round">13</text>
<text x="224" y="637" font-size="8.5" text-anchor="middle" font-weight="400" font-family="IBM Plex Mono,monospace" fill="currentColor" opacity=".4">13</text>
<text x="246" y="637" font-size="8.5" text-anchor="middle" font-weight="400" font-family="IBM Plex Mono,monospace" fill="none" stroke="var(--surface,#F8F9F7)" stroke-width="3.2" stroke-linejoin="round">12</text>
<text x="246" y="637" font-size="8.5" text-anchor="middle" font-weight="400" font-family="IBM Plex Mono,monospace" fill="currentColor" opacity=".4">12</text>
<text x="268" y="637" font-size="8.5" text-anchor="middle" font-weight="400" font-family="IBM Plex Mono,monospace" fill="none" stroke="var(--surface,#F8F9F7)" stroke-width="3.2" stroke-linejoin="round">11</text>
<text x="268" y="637" font-size="8.5" text-anchor="middle" font-weight="400" font-family="IBM Plex Mono,monospace" fill="currentColor" opacity=".4">11</text>
<text x="290" y="637" font-size="8.5" text-anchor="middle" font-weight="400" font-family="IBM Plex Mono,monospace" fill="none" stroke="var(--surface,#F8F9F7)" stroke-width="3.2" stroke-linejoin="round">10</text>
<text x="290" y="637" font-size="8.5" text-anchor="middle" font-weight="400" font-family="IBM Plex Mono,monospace" fill="currentColor" opacity=".4">10</text>
<text x="312" y="637" font-size="8.5" text-anchor="middle" font-weight="700" font-family="IBM Plex Mono,monospace" fill="none" stroke="var(--surface,#F8F9F7)" stroke-width="3.2" stroke-linejoin="round">9</text>
<text x="312" y="637" font-size="8.5" text-anchor="middle" font-weight="700" font-family="IBM Plex Mono,monospace" fill="#2E7D46" opacity=".95">9</text>
<text x="334" y="637" font-size="8.5" text-anchor="middle" font-weight="400" font-family="IBM Plex Mono,monospace" fill="none" stroke="var(--surface,#F8F9F7)" stroke-width="3.2" stroke-linejoin="round">8</text>
<text x="334" y="637" font-size="8.5" text-anchor="middle" font-weight="400" font-family="IBM Plex Mono,monospace" fill="currentColor" opacity=".4">8</text>
<text x="378" y="637" font-size="8.5" text-anchor="middle" font-weight="700" font-family="IBM Plex Mono,monospace" fill="none" stroke="var(--surface,#F8F9F7)" stroke-width="3.2" stroke-linejoin="round">7</text>
<text x="378" y="637" font-size="8.5" text-anchor="middle" font-weight="700" font-family="IBM Plex Mono,monospace" fill="#2E7D46" opacity=".95">7</text>
<text x="400" y="637" font-size="8.5" text-anchor="middle" font-weight="400" font-family="IBM Plex Mono,monospace" fill="none" stroke="var(--surface,#F8F9F7)" stroke-width="3.2" stroke-linejoin="round">6</text>
<text x="400" y="637" font-size="8.5" text-anchor="middle" font-weight="400" font-family="IBM Plex Mono,monospace" fill="currentColor" opacity=".4">6</text>
<text x="422" y="637" font-size="8.5" text-anchor="middle" font-weight="400" font-family="IBM Plex Mono,monospace" fill="none" stroke="var(--surface,#F8F9F7)" stroke-width="3.2" stroke-linejoin="round">5</text>
<text x="422" y="637" font-size="8.5" text-anchor="middle" font-weight="400" font-family="IBM Plex Mono,monospace" fill="currentColor" opacity=".4">5</text>
<text x="444" y="637" font-size="8.5" text-anchor="middle" font-weight="400" font-family="IBM Plex Mono,monospace" fill="none" stroke="var(--surface,#F8F9F7)" stroke-width="3.2" stroke-linejoin="round">4</text>
<text x="444" y="637" font-size="8.5" text-anchor="middle" font-weight="400" font-family="IBM Plex Mono,monospace" fill="currentColor" opacity=".4">4</text>
<text x="466" y="637" font-size="8.5" text-anchor="middle" font-weight="400" font-family="IBM Plex Mono,monospace" fill="none" stroke="var(--surface,#F8F9F7)" stroke-width="3.2" stroke-linejoin="round">3</text>
<text x="466" y="637" font-size="8.5" text-anchor="middle" font-weight="400" font-family="IBM Plex Mono,monospace" fill="currentColor" opacity=".4">3</text>
<text x="488" y="637" font-size="8.5" text-anchor="middle" font-weight="700" font-family="IBM Plex Mono,monospace" fill="none" stroke="var(--surface,#F8F9F7)" stroke-width="3.2" stroke-linejoin="round">2</text>
<text x="488" y="637" font-size="8.5" text-anchor="middle" font-weight="700" font-family="IBM Plex Mono,monospace" fill="#2E7D46" opacity=".95">2</text>
<text x="510" y="637" font-size="8.5" text-anchor="middle" font-weight="400" font-family="IBM Plex Mono,monospace" fill="none" stroke="var(--surface,#F8F9F7)" stroke-width="3.2" stroke-linejoin="round">1</text>
<text x="510" y="637" font-size="8.5" text-anchor="middle" font-weight="400" font-family="IBM Plex Mono,monospace" fill="currentColor" opacity=".4">1</text>
<text x="532" y="637" font-size="8.5" text-anchor="middle" font-weight="400" font-family="IBM Plex Mono,monospace" fill="none" stroke="var(--surface,#F8F9F7)" stroke-width="3.2" stroke-linejoin="round">0</text>
<text x="532" y="637" font-size="8.5" text-anchor="middle" font-weight="400" font-family="IBM Plex Mono,monospace" fill="currentColor" opacity=".4">0</text>
<text x="136" y="697" font-size="8.5" text-anchor="middle" font-weight="400" font-family="IBM Plex Mono,monospace" fill="none" stroke="var(--surface,#F8F9F7)" stroke-width="3.2" stroke-linejoin="round">IOR</text>
<text x="136" y="697" font-size="8.5" text-anchor="middle" font-weight="400" font-family="IBM Plex Mono,monospace" fill="currentColor" opacity=".4">IOR</text>
<text x="158" y="697" font-size="8.5" text-anchor="middle" font-weight="400" font-family="IBM Plex Mono,monospace" fill="none" stroke="var(--surface,#F8F9F7)" stroke-width="3.2" stroke-linejoin="round">RST</text>
<text x="158" y="697" font-size="8.5" text-anchor="middle" font-weight="400" font-family="IBM Plex Mono,monospace" fill="currentColor" opacity=".4">RST</text>
<text x="180" y="697" font-size="8.5" text-anchor="middle" font-weight="400" font-family="IBM Plex Mono,monospace" fill="none" stroke="var(--surface,#F8F9F7)" stroke-width="3.2" stroke-linejoin="round">3V3</text>
<text x="180" y="697" font-size="8.5" text-anchor="middle" font-weight="400" font-family="IBM Plex Mono,monospace" fill="currentColor" opacity=".4">3V3</text>
<text x="202" y="697" font-size="8.5" text-anchor="middle" font-weight="700" font-family="IBM Plex Mono,monospace" fill="none" stroke="var(--surface,#F8F9F7)" stroke-width="3.2" stroke-linejoin="round">5V</text>
<text x="202" y="697" font-size="8.5" text-anchor="middle" font-weight="700" font-family="IBM Plex Mono,monospace" fill="#2E7D46" opacity=".95">5V</text>
<text x="224" y="697" font-size="8.5" text-anchor="middle" font-weight="700" font-family="IBM Plex Mono,monospace" fill="none" stroke="var(--surface,#F8F9F7)" stroke-width="3.2" stroke-linejoin="round">GND</text>
<text x="224" y="697" font-size="8.5" text-anchor="middle" font-weight="700" font-family="IBM Plex Mono,monospace" fill="#2E7D46" opacity=".95">GND</text>
<text x="246" y="697" font-size="8.5" text-anchor="middle" font-weight="400" font-family="IBM Plex Mono,monospace" fill="none" stroke="var(--surface,#F8F9F7)" stroke-width="3.2" stroke-linejoin="round">GND</text>
<text x="246" y="697" font-size="8.5" text-anchor="middle" font-weight="400" font-family="IBM Plex Mono,monospace" fill="currentColor" opacity=".4">GND</text>
<text x="268" y="697" font-size="8.5" text-anchor="middle" font-weight="400" font-family="IBM Plex Mono,monospace" fill="none" stroke="var(--surface,#F8F9F7)" stroke-width="3.2" stroke-linejoin="round">VIN</text>
<text x="268" y="697" font-size="8.5" text-anchor="middle" font-weight="400" font-family="IBM Plex Mono,monospace" fill="currentColor" opacity=".4">VIN</text>
<text x="312" y="697" font-size="8.5" text-anchor="middle" font-weight="700" font-family="IBM Plex Mono,monospace" fill="none" stroke="var(--surface,#F8F9F7)" stroke-width="3.2" stroke-linejoin="round">A0</text>
<text x="312" y="697" font-size="8.5" text-anchor="middle" font-weight="700" font-family="IBM Plex Mono,monospace" fill="#2E7D46" opacity=".95">A0</text>
<text x="334" y="697" font-size="8.5" text-anchor="middle" font-weight="400" font-family="IBM Plex Mono,monospace" fill="none" stroke="var(--surface,#F8F9F7)" stroke-width="3.2" stroke-linejoin="round">A1</text>
<text x="334" y="697" font-size="8.5" text-anchor="middle" font-weight="400" font-family="IBM Plex Mono,monospace" fill="currentColor" opacity=".4">A1</text>
<text x="356" y="697" font-size="8.5" text-anchor="middle" font-weight="400" font-family="IBM Plex Mono,monospace" fill="none" stroke="var(--surface,#F8F9F7)" stroke-width="3.2" stroke-linejoin="round">A2</text>
<text x="356" y="697" font-size="8.5" text-anchor="middle" font-weight="400" font-family="IBM Plex Mono,monospace" fill="currentColor" opacity=".4">A2</text>
<text x="378" y="697" font-size="8.5" text-anchor="middle" font-weight="400" font-family="IBM Plex Mono,monospace" fill="none" stroke="var(--surface,#F8F9F7)" stroke-width="3.2" stroke-linejoin="round">A3</text>
<text x="378" y="697" font-size="8.5" text-anchor="middle" font-weight="400" font-family="IBM Plex Mono,monospace" fill="currentColor" opacity=".4">A3</text>
<text x="400" y="697" font-size="8.5" text-anchor="middle" font-weight="400" font-family="IBM Plex Mono,monospace" fill="none" stroke="var(--surface,#F8F9F7)" stroke-width="3.2" stroke-linejoin="round">A4</text>
<text x="400" y="697" font-size="8.5" text-anchor="middle" font-weight="400" font-family="IBM Plex Mono,monospace" fill="currentColor" opacity=".4">A4</text>
<text x="422" y="697" font-size="8.5" text-anchor="middle" font-weight="400" font-family="IBM Plex Mono,monospace" fill="none" stroke="var(--surface,#F8F9F7)" stroke-width="3.2" stroke-linejoin="round">A5</text>
<text x="422" y="697" font-size="8.5" text-anchor="middle" font-weight="400" font-family="IBM Plex Mono,monospace" fill="currentColor" opacity=".4">A5</text>
</svg>